{"title":"Maa 1976 1GB Dvdrip X264 AAC","uid":8239286,"size":1108222681,"categoryP":"video","categoryS":"movies","magnet":"?xt=urn:btih:3359e3b5263d00bdaba5e049313b5b4297049946&amp;dn=Maa+1976+1GB+Dvdrip+X264+AAC&amp;tr=udp%3A%2F%2Ftracker.openbittorrent.com%3A80&amp;tr=udp%3A%2F%2Fopen.demonii.com%3A1337&amp;tr=udp%3A%2F%2Ftracker.coppersurfer.tk%3A6969&amp;tr=udp%3A%2F%2Fexodus.desync.com%3A6969","seeders":0,"leechers":1,"uploader":"brego45","files":1,"time":1362930590,"description":"Maa 1976 1GB Dvdrip X264 AAC [RRG DBB][DADA]\n\n\n\nCover -\n &lt;a href=&quot;\nhttp://desibbrg.org/images/21528340072123174403.jpg&quot; rel=&quot;nofollow&quot; target=&quot;_NEW&quot;&gt;\nhttp://desibbrg.org/images/21528340072123174403.jpg&lt;/a&gt;\n\n\nScreens -\n &lt;a href=&quot;\nhttp://desibbrg.org/images/92549869746031374368.jpg&quot; rel=&quot;nofollow&quot; target=&quot;_NEW&quot;&gt;\nhttp://desibbrg.org/images/92549869746031374368.jpg&lt;/a&gt;\n\n\nGeneral\n\nFormat                           : MP4 Video\nFile size                        : 1.03 GiB\nDuration                         : 2h 18mn\nOverall bit rate                 : 1 067 Kbps\n\n\nVideo\nFormat                           : AVC\nFormat/Info                      : Advanced Video Codec\nFormat profile                   : &lt;a class=&quot;__cf_email__&quot; href=&quot;/cdn-cgi/l/email-protection&quot; data-cfemail=&quot;efa28e8681afa3dcc1df&quot;&gt;[email&amp;#160;protected]&lt;/a&gt;&lt;script cf-hash='f9e31' type=&quot;text/javascript&quot;&gt;\n/* &lt;![CDATA[ */!function(){try{var t=&quot;currentScript&quot;in document?document.currentScript:function(){for(var t=document.getElementsByTagName(&quot;script&quot;),e=t.length;e--;)if(t[e].getAttribute(&quot;cf-hash&quot;))return t[e]}();if(t&amp;&amp;t.previousSibling){var e,r,n,i,c=t.previousSibling,a=c.getAttribute(&quot;data-cfemail&quot;);if(a){for(e=&quot;&quot;,r=parseInt(a.substr(0,2),16),n=2;a.length-n;n+=2)i=parseInt(a.substr(n,2),16)^r,e+=String.fromCharCode(i);e=document.createTextNode(e),c.parentNode.replaceChild(e,c)}}}catch(u){}}();/* ]]&gt; */&lt;/script&gt;\nFormat settings, CABAC           : Yes\nFormat settings, ReFrames        : 3 frames\nDuration                         : 2h 18mn\nBit rate                         : 930 Kbps\nWidth                            : 854 pixels\nHeight                           : 480 pixels\nDisplay aspect ratio             : 16:9\nFrame rate mode                  : Constant\nFrame rate                       : 25.000 fps\nColor space                      : YUV\nChroma subsampling               : 4:2:0\nBit depth                        : 8 bits\nScan type                        : Progressive\nBits/(Pixel*Frame)               : 0.091\nStream size                      : 921 MiB (87%)\n\nAudio\nFormat                           : AAC\nFormat/Info                      : Advanced Audio Codec\nFormat version                   : Version 4\nFormat profile                   : LC\nFormat settings, SBR             : No\nDuration                         : 2h 18mn\nBit rate                         : 129 Kbps\nChannel(s)                       : 2 channels\nChannel positions                : Front: L R\nSampling rate                    : 44.1 KHz\nBit depth                        : 16 bits\nStream size                      : 127 MiB (12%)\n\n\n &lt;a href=&quot;\nhttp://www.imdb.com/title/tt0276309/&quot; rel=&quot;nofollow&quot; target=&quot;_NEW&quot;&gt;\nhttp://www.imdb.com/title/tt0276309/&lt;/a&gt;\n\n\n\nAbout this movie\n\n    Genres:\nIndian Cinema, Drama, Family\n    Language:\nHindi\n    Running time:\n2:18:27\n    Released:\nJul 20, 1976\n\nCast &amp; Crew\nCast\n\n    Dharmendra\n    Hema Malini\n    Nirupa Roy\n    Ranjeet\n    Om Prakash\n    Paintal\n    Shashi Kiran\n\nDirectors\n\n    M.A. Thirumugham\n\nProducers\n\n    M.M.Chinnappa Devar\n\nWriters\n\n    Inder Raj Anand\n\nSuper Hit Bollywood movie Maa (1976) Synopsis: MAA is about the bond between a mother and child, which is the strongest and perhaps the most unselfish, at least from the mother s point of view. Maa, the movie, delves into this relationship. Laden around a plot involving the relationship of an elephant cow and her calf, it re-establishes the universal bond of unselfish love. Vijay a poacher, who supplies trapped animals to Balraj a smuggler, never realize the intensity of harm he does to the animals when he separates their babies. However, things change when an elephant cow in a fit of anger kills his mother. Vijay realizes his mistake, only after loosing his own mother. Vijay separates himself from Balraj with a gigantic task ahead of him to rescue the baby elephant. Vijay sets out to do the needful. Is Vijay successful in his task? Is he able to rescue the baby elephant? Does the elephant cow get its baby back? For all these answers, watch this fast moving adventure, Maa on Ultra DVD. \n","torrent":{"xt":"urn:btih:3359e3b5263d00bdaba5e049313b5b4297049946","amp;dn":"Maa+1976+1GB+Dvdrip+X264+AAC","amp;tr":["udp%3A%2F%2Ftracker.openbittorrent.com%3A80","udp%3A%2F%2Fopen.demonii.com%3A1337","udp%3A%2F%2Ftracker.coppersurfer.tk%3A6969","udp%3A%2F%2Fexodus.desync.com%3A6969"],"infoHash":"3359e3b5263d00bdaba5e049313b5b4297049946","infoHashBuffer":{"type":"Buffer","data":[51,89,227,181,38,61,0,189,171,165,224,73,49,59,91,66,151,4,153,70]},"announce":[],"urlList":[]}}